<?xml version="1.0" encoding="UTF-8" standalone="no"?>
<!-- Created with Inkscape (http://www.inkscape.org/) -->

<svg
   xmlns:dc="http://purl.org/dc/elements/1.1/"
   xmlns:cc="http://creativecommons.org/ns#"
   xmlns:rdf="http://www.w3.org/1999/02/22-rdf-syntax-ns#"
   xmlns:svg="http://www.w3.org/2000/svg"
   xmlns="http://www.w3.org/2000/svg"
   xmlns:xlink="http://www.w3.org/1999/xlink"
   xmlns:sodipodi="http://sodipodi.sourceforge.net/DTD/sodipodi-0.dtd"
   xmlns:inkscape="http://www.inkscape.org/namespaces/inkscape"
   width="297mm"
   height="210mm"
   viewBox="0 0 297 210"
   version="1.1"
   id="svg6557"
   inkscape:version="0.92.4 (5da689c313, 2019-01-14)"
   sodipodi:docname="Blog Musica5.svg">
  <defs
     id="defs6551">
    <linearGradient
       inkscape:collect="always"
       id="linearGradient7114">
      <stop
         style="stop-color:#800000;stop-opacity:1;"
         offset="0"
         id="stop7110" />
      <stop
         id="stop7118"
         offset="0.47036627"
         style="stop-color:#800000;stop-opacity:0.25125629" />
      <stop
         style="stop-color:#800000;stop-opacity:0.95979899"
         offset="1"
         id="stop7112" />
    </linearGradient>
    <linearGradient
       inkscape:collect="always"
       xlink:href="#linearGradient7114"
       id="linearGradient7116"
       x1="38.904621"
       y1="41.476673"
       x2="216.71527"
       y2="41.476673"
       gradientUnits="userSpaceOnUse" />
    <filter
       inkscape:collect="always"
       style="color-interpolation-filters:sRGB"
       id="filter1011"
       x="-0.02864977"
       width="1.0572995"
       y="-0.051821232"
       height="1.1036425">
      <feGaussianBlur
         inkscape:collect="always"
         stdDeviation="1.2355115"
         id="feGaussianBlur1013" />
    </filter>
  </defs>
  <sodipodi:namedview
     id="base"
     pagecolor="#ffffff"
     bordercolor="#666666"
     borderopacity="1.0"
     inkscape:pageopacity="0.0"
     inkscape:pageshadow="2"
     inkscape:zoom="0.72949405"
     inkscape:cx="561.25984"
     inkscape:cy="396.85039"
     inkscape:document-units="mm"
     inkscape:current-layer="layer1"
     showgrid="true"
     showguides="true"
     inkscape:window-width="1280"
     inkscape:window-height="778"
     inkscape:window-x="-8"
     inkscape:window-y="-8"
     inkscape:window-maximized="1">
    <inkscape:grid
       type="xygrid"
       id="grid861" />
  </sodipodi:namedview>
  <metadata
     id="metadata6554">
    <rdf:RDF>
      <cc:Work
         rdf:about="">
        <dc:format>image/svg+xml</dc:format>
        <dc:type
           rdf:resource="http://purl.org/dc/dcmitype/StillImage" />
        <dc:title></dc:title>
      </cc:Work>
    </rdf:RDF>
  </metadata>
  <g
     inkscape:label="Capa 1"
     inkscape:groupmode="layer"
     id="layer1"
     transform="translate(0,-87)">
    <rect
       style="opacity:1;fill:#000000;fill-opacity:0.98492462;stroke:#2d2d68;stroke-width:0;stroke-miterlimit:4;stroke-dasharray:none;stroke-opacity:1"
       id="rect7302"
       width="6.9504833"
       height="0"
       x="92.919907"
       y="92.219452" />
    <text
       xml:space="preserve"
       style="font-style:normal;font-variant:normal;font-weight:normal;font-stretch:normal;font-size:10.58333302px;line-height:1.25;font-family:Cambria;-inkscape-font-specification:Cambria;letter-spacing:0px;word-spacing:0px;fill:#000000;fill-opacity:1;stroke:none;stroke-width:0.26458332"
       x="38.175594"
       y="115.9494"
       id="text1023"><tspan
         sodipodi:role="line"
         id="tspan1021"
         x="38.175594"
         y="125.50437"
         style="font-style:normal;font-variant:normal;font-weight:normal;font-stretch:normal;font-family:Cambria;-inkscape-font-specification:Cambria;stroke-width:0.26458332" /></text>
    <g
       id="g1036"
       transform="matrix(2.032942,0,0,2.8618524,-64.252664,-41.459047)">
      <g
         transform="matrix(1.2117842,0,0,1,-7.6400271,0)"
         id="g1019">
        <g
           aria-label="M.C."
           transform="matrix(1.0795217,0,0,0.92633618,-0.75595238,2.2678572)"
           style="font-style:normal;font-variant:normal;font-weight:normal;font-stretch:normal;font-size:79.18054962px;line-height:1.25;font-family:'Freestyle Script';-inkscape-font-specification:'Freestyle Script';letter-spacing:0px;word-spacing:0px;fill:#000000;fill-opacity:1;stroke:none;stroke-width:1.97951376;filter:url(#filter1011)"
           id="text973">
          <path
             id="path981"
             style="font-style:normal;font-variant:normal;font-weight:normal;font-stretch:normal;font-family:'Freestyle Script';-inkscape-font-specification:'Freestyle Script';fill:#000000;fill-opacity:1;stroke-width:1.97951376"
             d="m 135.45805,100.52927 q 0.85058,0 1.43051,0.77325 0.38663,0.50261 0.38663,1.27585 0,1.81714 -1.00523,3.82758 -1.04388,2.12643 -2.74503,2.12643 -1.77846,0 -1.77846,-2.01044 0,-2.01045 1.23719,-4.09822 1.12121,-1.89445 2.47439,-1.89445 z M 133.5636,53.631803 q 2.59038,0 3.98223,1.855795 1.12121,1.46917 1.12121,3.556938 0,3.750251 -2.51306,8.544386 -2.20375,4.136874 -5.49006,7.423176 -2.16509,2.126431 -3.40229,2.126431 -0.8119,0 -1.50783,-0.81191 -0.50261,-0.579935 -0.50261,-1.314521 0,-1.353183 2.35841,-3.09299 3.32496,-2.474392 5.29674,-5.412733 2.89968,-4.252861 2.89968,-7.191202 0,-1.198534 -0.54127,-1.778469 -0.50261,-0.579936 -1.5465,-0.579936 -2.12643,0 -6.03133,3.09299 -4.44617,3.479614 -9.39496,9.472283 -6.30196,7.616488 -9.58827,15.001002 -3.40229,7.655151 -3.40229,13.067884 0,2.590383 1.50784,4.407513 1.66248,2.0491 4.05955,2.0491 4.17553,0 10.51616,-6.495275 1.89446,-1.971782 4.60083,-5.722032 1.77847,-2.397068 2.28108,-3.40229 0.57993,-1.121209 1.35318,-1.121209 0.85057,0 0.85057,0.81191 0,1.739807 -4.33018,7.809801 -3.59561,5.064775 -7.92579,8.273745 -4.87146,3.5956 -9.20165,3.5956 -4.5235,0 -6.99789,-4.05955 -1.58516,-2.59037 -1.58516,-5.915339 0,-8.351073 7.88713,-21.070996 6.72725,-10.825465 14.18909,-17.436732 6.45662,-5.68337 11.05744,-5.68337 z M 85.970215,100.52927 q 0.850572,0 1.430508,0.77325 0.386623,0.50261 0.386623,1.27585 0,1.81714 -1.005221,3.82758 -1.043885,2.12643 -2.745029,2.12643 -1.77847,0 -1.77847,-2.01044 0,-2.01045 1.237197,-4.09822 1.121209,-1.89445 2.474392,-1.89445 z M 58.558591,91.288959 q 1.237196,-1.817131 5.722032,-8.737697 3.827575,-5.915344 12.217311,-17.050109 4.87146,-6.456617 8.815022,-10.825465 2.358405,-2.629042 4.175537,-2.629042 1.043884,0 1.739807,0.734585 0.618598,0.579936 0.618598,1.46917 0,1.314521 -1.585158,4.136875 -0.309299,0.579936 -3.170315,5.606045 -5.103433,9.046996 -6.920565,12.913234 -4.987447,10.593491 -7.30719,18.05533 -1.353183,4.446174 -1.353183,6.533945 0,0.46395 0.07733,0.96656 0.193312,1.50783 0.193312,1.77847 0,1.1212 -0.850572,2.08776 -0.734586,0.88924 -1.662483,0.88924 -1.082546,0 -1.778469,-1.27586 -0.579936,-0.96656 -0.579936,-2.70637 0,-10.941449 18.248643,-42.99256 -9.549608,10.206868 -21.148321,29.228758 -2.551717,4.136874 -4.214199,5.606044 -1.62382,1.430508 -3.09299,1.430508 -1.469171,0 -2.165094,-1.275858 -0.463948,-0.850572 -0.463948,-1.971781 0,-9.665595 11.482726,-30.427292 -3.9049,3.982225 -7.500501,9.240309 -6.533942,9.704256 -11.676038,19.911124 -2.43573,4.910122 -5.915344,13.106548 -1.739807,4.17554 -4.020887,4.17554 -0.579936,0 -0.96656,-0.50262 -0.309299,-0.34796 -0.309299,-0.85057 0,-0.73458 1.430508,-4.02089 3.054328,-7.22986 4.678148,-10.400175 8.312411,-16.199536 19.67915,-30.465954 4.755473,-5.954006 6.572604,-7.732475 1.894457,-1.817132 3.131653,-1.817132 0.773247,0 1.507833,0.695923 0.889234,0.81191 0.889234,1.855794 0,1.159871 -1.62382,3.827575 -4.639485,7.577826 -8.544385,17.011446 -3.363627,8.505724 -4.330186,14.421067 z"
             inkscape:connector-curvature="0" />
        </g>
        <text
           xml:space="preserve"
           style="font-style:normal;font-variant:normal;font-weight:normal;font-stretch:normal;font-size:79.18054962px;line-height:1.25;font-family:'Freestyle Script';-inkscape-font-specification:'Freestyle Script';letter-spacing:0px;word-spacing:0px;fill:#aa4400;fill-opacity:1;stroke:none;stroke-width:1.97951376"
           x="37.824699"
           y="103.51105"
           id="text969"
           transform="scale(1.0795217,0.92633618)"><tspan
             sodipodi:role="line"
             id="tspan967"
             x="37.824699"
             y="103.51105"
             style="font-style:normal;font-variant:normal;font-weight:normal;font-stretch:normal;font-family:'Freestyle Script';-inkscape-font-specification:'Freestyle Script';fill:#aa4400;stroke-width:1.97951376">M.C.</tspan></text>
      </g>
      <text
         transform="scale(1.1168388,0.89538436)"
         id="text1027"
         y="130.17853"
         x="31.730024"
         style="font-style:normal;font-variant:normal;font-weight:normal;font-stretch:normal;font-size:15.14868641px;line-height:1.25;font-family:Batang;-inkscape-font-specification:Batang;letter-spacing:0px;word-spacing:0px;fill:#000000;fill-opacity:1;stroke:none;stroke-width:0.37871715"
         xml:space="preserve"><tspan
           style="font-style:normal;font-variant:normal;font-weight:normal;font-stretch:normal;font-family:Batang;-inkscape-font-specification:Batang;stroke-width:0.37871715"
           y="130.17853"
           x="31.730024"
           id="tspan1025"
           sodipodi:role="line">Musica Cristiana</tspan></text>
    </g>
  </g>
</svg>
